<svg width="512" height="512" xmlns="http://www.w3.org/2000/svg" xml:space="preserve" version="1.1">
    <g>
        <title>Layer 1</title>
        <g id="svg_25">
            <rect rx="80" stroke="#000" id="svg_23" height="455" width="382.99998" x="65" fill="#72f0fc"/>
            <path id="svg_1" fill="#E7B3A8" d="m256,93.657l0,0c-21.204,0 -38.393,17.189 -38.393,38.393l0,30.145l-30.145,0c-21.204,0 -38.393,17.189 -38.393,38.393l0,0c0,21.204 17.189,38.393 38.393,38.393l30.145,0l0,30.145c0,21.204 17.189,38.393 38.393,38.393l0,0c21.204,0 38.393,-17.189 38.393,-38.393l0,-30.145l30.145,0c21.204,0 38.393,-17.189 38.393,-38.393l0,0c0,-21.204 -17.189,-38.393 -38.393,-38.393l-30.145,0l0,-30.147c0,-21.202 -17.189,-38.391 -38.393,-38.391z"/>
            <path id="svg_2" fill="#4C213A" d="m256,321.343c-28.793,0 -52.219,-23.424 -52.219,-52.219l0,-16.32l-16.319,0c-28.793,0 -52.219,-23.424 -52.219,-52.219s23.426,-52.219 52.219,-52.219l16.319,0l0,-16.318c0,-28.793 23.424,-52.219 52.219,-52.219s52.219,23.424 52.219,52.219l0,16.32l16.319,0c28.793,0 52.219,23.424 52.219,52.219s-23.426,52.219 -52.219,52.219l-16.319,0l0,16.32c0,28.793 -23.426,52.217 -52.219,52.217zm-68.538,-145.321c-13.546,0 -24.566,11.021 -24.566,24.566s11.021,24.566 24.566,24.566l30.145,0c7.636,0 13.826,6.191 13.826,13.826l0,30.147c0,13.546 11.021,24.566 24.566,24.566s24.566,-11.021 24.566,-24.566l0,-30.147c0,-7.635 6.19,-13.826 13.826,-13.826l30.145,0c13.546,0 24.566,-11.021 24.566,-24.566s-11.021,-24.566 -24.566,-24.566l-30.145,0c-7.636,0 -13.826,-6.191 -13.826,-13.826l0,-30.147c0,-13.546 -11.021,-24.566 -24.566,-24.566s-24.566,11.021 -24.566,24.566l0,30.147c0,7.635 -6.19,13.826 -13.826,13.826l-30.145,0z"/>
            <path id="svg_3" fill="#E7B3A8" d="m299.113,443.39l79.69,0l0,50.948c0,2.732 -3.325,4.585 -6.345,3.538l-31.741,-11.014c-1.125,-0.391 -2.392,-0.391 -3.517,0l-31.741,11.014c-3.02,1.048 -6.345,-0.806 -6.345,-3.538l0,-50.948l-0.001,0z"/>
            <path id="svg_5" fill="#4C213A" d="m374.221,512c-2.147,0 -4.265,-0.357 -6.295,-1.062l-28.969,-10.053l-28.967,10.053c-2.03,0.705 -4.148,1.062 -6.295,1.062c-10.151,0 -18.408,-7.922 -18.408,-17.66l0,-50.95c0,-7.635 6.19,-13.826 13.826,-13.826l79.69,0c7.636,0 13.826,6.191 13.826,13.826l0,50.95c0,9.736 -8.258,17.659 -18.408,17.66zm-35.264,-39.258c2.151,0 4.267,0.355 6.285,1.055l19.733,6.848l0,-23.429l-52.038,0l0,23.429l19.727,-6.845c2.027,-0.703 4.142,-1.058 6.293,-1.058z"/>
            <path id="svg_6" fill="#4C213A" d="m405.323,456.264l-280.672,0c-34.307,0 -62.218,-27.911 -62.218,-62.218l0,-331.828c0,-34.307 27.911,-62.218 62.218,-62.218l280.672,0c24.396,0 44.244,19.848 44.244,44.244l0,251.858c0,7.635 -6.19,13.826 -13.826,13.826s-13.826,-6.191 -13.826,-13.826l0,-251.858c0,-9.149 -7.443,-16.591 -16.591,-16.591l-280.673,0c-19.059,0 -34.566,15.506 -34.566,34.566l0,331.828c0,19.059 15.506,34.566 34.566,34.566l280.672,0c9.149,0 16.591,-7.443 16.591,-16.591l0,-45.405c0,-7.635 6.19,-13.826 13.826,-13.826s13.826,6.191 13.826,13.826l0,45.405c0.001,24.394 -19.847,44.242 -44.243,44.242z"/>
            <path id="svg_7" fill="#4C213A" d="m328.307,369.312l-144.613,0c-7.636,0 -13.826,-6.191 -13.826,-13.826c0,-7.635 6.19,-13.826 13.826,-13.826l144.613,0c7.636,0 13.826,6.191 13.826,13.826c0,7.635 -6.19,13.826 -13.826,13.826z"/>
        </g>
    </g>
</svg>
