<?xml version="1.0" standalone="no"?>
<!DOCTYPE svg PUBLIC "-//W3C//DTDSVG20010904//EN"  "http://www.w3.org/TR/2001/REC-SVG-20010904/DTD/svg10.dtd">
<svg version="1.0" xmlns="http://www.w3.org/2000/svg" width="512.000000pt" height="512.000000pt" viewBox="0 0 512.000000 512.000000" preserveAspectRatio="xMidYMid meet">

    <g transform="translate(0.000000,512.000000) scale(0.100000,-0.100000)" fill="#000000" stroke="none">
        <path d="M1385 4864 c-259 -26 -510 -118 -729 -267 -52 -35 -141 -112 -206 -177 -227 -226 -372 -500 -425 -805 -23 -132 -24 -357 -1 -485 25 -138 88 -318 160 -455 l62 -120 554 0 554 0 105 175 c119 196 143 220 221 220 82 0 95 -15 327 -379 l213 -334 59 124 c33 68 156 329 275 579 283 597 284 600 325 627 57 39 147 27 193 -23 9 -11 134 -238 278 -506 l262 -488 629 0 629 0 27 42 c79 125 157 327 195 502 32 146 32 417 0 563 -130 601 -593 1060 -1197 1188 -106 23 -336 31 -447 16 -280 -37 -539 -146 -779 -328 -60 -46 -112 -83 -115 -83 -3 0 -31 22 -63 49 -200 166 -492 303 -736 346 -91 16 -297 26 -370 19z"/>
        <path d="M2860 2873 c-57 -120 -188 -398 -292 -617 -103 -220 -195 -410 -204 -423 -41 -63 -142 -83 -205 -40 -31 21 -71 80 -405 604 l-70 111 -65 -106 c-40 -66 -77 -115 -98 -129 l-34 -23 -496 0 -496 -1 992 -989 c1067 -1064 1021 -1022 1109 -1006 33 7 153 123 1036 999 l1000 992 -584 5 c-602 5 -603 5 -639 47 -9 10 -110 192 -225 406 -114 213 -211 387 -214 387 -4 0 -53 -98 -110 -217z"/>
    </g>
</svg>
