<svg width="512" height="512" xmlns="http://www.w3.org/2000/svg" preserveAspectRatio="xMidYMid meet" version="1.0">
    <g>
        <title>Layer 1</title>
        <g id="svg_1" fill="#000000" transform="translate(0 512) scale(0.1 -0.1)">
            <path fill="#ff1616" id="svg_2" d="m1385,4864c-259,-26 -510,-118 -729,-267c-52,-35 -141,-112 -206,-177c-227,-226 -372,-500 -425,-805c-23,-132 -24,-357 -1,-485c25,-138 88,-318 160,-455l62,-120l554,0l554,0l105,175c119,196 143,220 221,220c82,0 95,-15 327,-379l213,-334l59,124c33,68 156,329 275,579c283,597 284,600 325,627c57,39 147,27 193,-23c9,-11 134,-238 278,-506l262,-488l629,0l629,0l27,42c79,125 157,327 195,502c32,146 32,417 0,563c-130,601 -593,1060 -1197,1188c-106,23 -336,31 -447,16c-280,-37 -539,-146 -779,-328c-60,-46 -112,-83 -115,-83c-3,0 -31,22 -63,49c-200,166 -492,303 -736,346c-91,16 -297,26 -370,19z"/>
            <path fill="#ff1616" id="svg_3" d="m2860,2873c-57,-120 -188,-398 -292,-617c-103,-220 -195,-410 -204,-423c-41,-63 -142,-83 -205,-40c-31,21 -71,80 -405,604l-70,111l-65,-106c-40,-66 -77,-115 -98,-129l-34,-23l-496,0l-496,-1l992,-989c1067,-1064 1021,-1022 1109,-1006c33,7 153,123 1036,999l1000,992l-584,5c-602,5 -603,5 -639,47c-9,10 -110,192 -225,406c-114,213 -211,387 -214,387c-4,0 -53,-98 -110,-217z"/>
        </g>
    </g>
</svg>
